<svg width="47" height="75" viewBox="0 0 47 75" fill="none" xmlns="http://www.w3.org/2000/svg">
<path d="M24.0465 73.1395C29.8469 73.1395 35.1354 72.4703 39.0055 71.3667C40.9338 70.8169 42.5669 70.1434 43.7409 69.3519C44.8797 68.5841 45.8139 67.5437 45.8139 66.2176C45.8139 64.8916 44.8797 63.8511 43.7409 63.0834C42.5669 62.2919 40.9338 61.6184 39.0055 61.0685C35.1354 59.965 29.8469 59.2957 24.0465 59.2957C18.2461 59.2957 12.9576 59.965 9.08747 61.0685C7.15923 61.6184 5.52611 62.2919 4.35206 63.0834C3.2133 63.8511 2.27905 64.8916 2.27905 66.2176C2.27905 67.5437 3.2133 68.5841 4.35206 69.3519C5.52611 70.1434 7.15923 70.8169 9.08747 71.3667C12.9576 72.4703 18.2461 73.1395 24.0465 73.1395Z" fill="#A1E07A" stroke="black" stroke-width="2"/>
<path d="M46 21.3685C46 27.092 43.4169 38.8661 39.191 49.2337C37.0822 54.4074 34.5926 59.1585 31.8639 62.5978C29.1064 66.0734 26.2731 68.0026 23.5 68.0026C20.7269 68.0026 17.8936 66.0734 15.1361 62.5978C12.4074 59.1585 9.91785 54.4074 7.80902 49.2337C3.58314 38.8661 1 27.092 1 21.3685C1 10.2067 10.982 1 23.5 1C36.018 1 46 10.2067 46 21.3685Z" fill="#F3453A" stroke="black" stroke-width="2"/>
<ellipse cx="23.5" cy="21.3685" rx="9.94231" ry="9.79392" fill="white"/>
</svg>
