<svg width="23" height="34" viewBox="0 0 23 34" fill="none" xmlns="http://www.w3.org/2000/svg">
    <path fill-rule="evenodd" clip-rule="evenodd"
        d="M15.4898 33.2417C13.8579 33.7141 11.6305 34 9.18919 34C6.7479 34 4.52044 33.7141 2.88858 33.2417C2.07573 33.0064 1.38449 32.7175 0.885988 32.3763C0.402359 32.0453 0 31.5928 0 31.0135C0 30.4342 0.402359 29.9817 0.885988 29.6507C1.38449 29.3095 2.07573 29.0206 2.88858 28.7853C4.52044 28.3129 6.7479 28.027 9.18919 28.027C11.6305 28.027 13.8579 28.3129 15.4898 28.7853C16.3026 29.0206 16.9939 29.3095 17.4924 29.6507C17.976 29.9817 18.3784 30.4342 18.3784 31.0135C18.3784 31.5928 17.976 32.0453 17.4924 32.3763C16.9939 32.7175 16.3026 33.0064 15.4898 33.2417ZM9.18919 33.5405C14.0105 33.5405 17.9189 32.4091 17.9189 31.0135C17.9189 29.6179 14.0105 28.4865 9.18919 28.4865C4.36789 28.4865 0.459459 29.6179 0.459459 31.0135C0.459459 32.4091 4.36789 33.5405 9.18919 33.5405Z"
        fill="black" />
    <path
        d="M17.9189 31.0135C17.9189 32.4091 14.0105 33.5405 9.1892 33.5405C4.36791 33.5405 0.459473 32.4091 0.459473 31.0135C0.459473 29.6179 4.36791 28.4865 9.1892 28.4865C14.0105 28.4865 17.9189 29.6179 17.9189 31.0135Z"
        fill="#A1E07A" />
    <path fill-rule="evenodd" clip-rule="evenodd" d="M7.81081 30.3243V2.75674H10.1081V30.3243H7.81081Z" fill="white" />
    <path
        d="M10.5676 2.06755C10.5676 2.95568 9.84759 3.67566 8.95946 3.67566C8.07132 3.67566 7.35135 2.95568 7.35135 2.06755C7.35135 1.17942 8.07132 0.459442 8.95946 0.459442C9.84759 0.459442 10.5676 1.17942 10.5676 2.06755Z"
        fill="white" />
    <path fill-rule="evenodd" clip-rule="evenodd"
        d="M7.81081 3.19301C7.68657 3.06623 7.58316 2.91897 7.5061 2.75676C7.43826 2.61393 7.39084 2.45952 7.36764 2.2973C7.3569 2.22227 7.35135 2.14557 7.35135 2.06757C7.35135 1.17943 8.07133 0.459459 8.95946 0.459459C9.84759 0.459459 10.5676 1.17943 10.5676 2.06757C10.5676 2.14557 10.562 2.22227 10.5513 2.2973C10.5281 2.45952 10.4807 2.61393 10.4128 2.75676C10.3358 2.91897 10.2323 3.06623 10.1081 3.19301V30.3243H7.81081V3.19301ZM7.35135 3.36722C7.06401 3.01213 6.89189 2.55995 6.89189 2.06757C6.89189 0.925681 7.81757 0 8.95946 0C10.1013 0 11.027 0.925681 11.027 2.06757C11.027 2.55995 10.8549 3.01213 10.5676 3.36722V30.7838H7.35135V3.36722Z"
        fill="black" />
    <path
        d="M21.8243 9.37384C22.7432 9.90438 22.7432 11.2307 21.8243 11.7613L11.4865 17.7298C10.5676 18.2604 9.41893 17.5972 9.41893 16.5361L9.41893 4.599C9.41893 3.53792 10.5676 2.87475 11.4865 3.40529L21.8243 9.37384Z"
        fill="#F3453A" />
    <path fill-rule="evenodd" clip-rule="evenodd"
        d="M11.2568 17.3319L21.5946 11.3634C22.2072 11.0097 22.2072 10.1254 21.5946 9.77175L11.2568 3.80319C10.6442 3.4495 9.87839 3.89162 9.87839 4.599L9.87838 16.5361C9.87838 17.2435 10.6442 17.6856 11.2568 17.3319ZM21.8243 11.7613C22.7432 11.2307 22.7432 9.90438 21.8243 9.37384L11.4865 3.40529C10.5676 2.87475 9.41893 3.53792 9.41893 4.599L9.41893 16.5361C9.41893 17.5972 10.5676 18.2604 11.4865 17.7298L21.8243 11.7613Z"
        fill="black" />
</svg>